#!OML:ASF H:\Terrain\Patient Classification 1\Animal2\Wednesday\Animal2.ASF
:FULLY-SPECIFIED
:DEGREES
425
root 16.8153 17.8853 -15.8068 -15.0569 -82.0231 21.6429
lowerback -0.272822 -5.4197 1.21599
upperback -9.542 -7.58465 0.159081
thorax -10.0996 -3.95284 0.172854
lowerneck 7.97303 16.8505 18.6245
upperneck -8.92079 23.0165 -30.2432
head 2.20438 12.0524 -11.478
rclavicle 2.00773e-014 1.03368e-014
rhumerus -24.7959 -57.3572 23.9191
rradius 53.9286
rwrist -43.0519
rhand -12.4499 25.9785
rfingers 7.12502
rthumb 13.6234 -3.55573
lclavicle 2.00773e-014 1.03368e-014
lhumerus -15.8507 22.1363 -2.01408
lradius 61.2133
lwrist 96.9027
lhand -9.25938 14.403
lfingers 7.12502
lthumb 16.6967 43.7049
rfemur -17.8347 5.28967 19.3961
rtibia 28.9118
rfoot -8.16551 31.0213
rtoes 45.0648
lfemur -10.0668 -0.75769 -21.0067
ltibia 23.2279
lfoot -18.3785 17.35
ltoes -14.2413
426
root 16.7726 17.8757 -15.796 -13.0544 -82.1272 19.4509
lowerback -0.485039 -5.49458 1.30384
upperback -9.69067 -7.68077 0.352326
thorax -10.1271 -4.00396 0.324517
lowerneck 8.06507 16.8141 18.7492
upperneck -9.45675 22.8788 -30.5464
head 2.07208 12.0091 -11.6478
rclavicle -1.12313e-013 -2.70347e-014
rhumerus -23.4629 -57.4805 23.3468
rradius 53.8891
rwrist -43.1085
rhand -12.3759 26.2408
rfingers 7.12502
rthumb 13.6947 -3.28857
lclavicle -1.12313e-013 -2.70347e-014
lhumerus -15.3435 22.3974 -2.89294
lradius 61.7162
lwrist 97.4573
lhand -9.54805 14.3552
lfingers 7.12502
lthumb 16.4188 43.6803
rfemur -17.4562 4.64771 19.7919
rtibia 28.8292
rfoot -7.16655 31.741
rtoes 46.1513
lfemur -9.7879 -0.806379 -20.8198
ltibia 23.3687
lfoot -18.5244 17.8942
ltoes -13.7626
427
root 16.728 17.8686 -15.787 -10.7549 -82.26 16.9415
lowerback -0.678942 -5.50485 1.3527
upperback -9.84416 -7.68957 0.573404
thorax -10.1594 -4.00743 0.520821
lowerneck 8.72647 16.6889 19.1593
upperneck -10.4468 22.6321 -31.2845
head 1.79826 11.9794 -12.1047
rclavicle -9.35282e-014 -1.82882e-014
rhumerus -22.575 -57.4844 23.1364
rradius 54.1659
rwrist -43.2409
rhand -12.4494 26.6083
rfingers 7.12502
rthumb 13.6239 -2.92585
lclavicle -9.35282e-014 -1.82882e-014
lhumerus -14.7206 23.144 -3.46898
lradius 61.8439
lwrist 97.3974
lhand -9.56869 14.0032
lfingers 7.12502
lthumb 16.399 43.33
rfemur -17.0942 4.01638 20.2546
rtibia 28.7901
rfoot -6.61426 32.4186
rtoes 46.8012
lfemur -9.47147 -0.826663 -20.5355
ltibia 23.4753
lfoot -18.7575 18.3655
ltoes -13.3081
428
root 16.6843 17.8558 -15.7804 -9.76156 -82.3514 15.7659
lowerback -0.90436 -5.50026 1.12431
upperback -9.9514 -7.69326 0.733293
thorax -10.0904 -3.98823 0.792675
lowerneck 6.82223 16.6364 17.9234
upperneck -9.51612 22.3484 -29.4968
head 1.87051 11.6347 -11.1622
rclavicle -4.77083e-015 -1.27222e-014
rhumerus -22.0795 -57.5831 23.1297
rradius 54.7873
rwrist -43.2972
rhand -12.635 27.0715
rfingers 7.12502
rthumb 13.445 -2.47457
lclavicle -4.77083e-015 -1.27222e-014
lhumerus -13.8117 24.0543 -4.00053
lradius 61.7618
lwrist 97.1522
lhand -9.68204 13.4086
lfingers 7.12502
lthumb 16.2898 42.7444
rfemur -16.7699 3.42342 20.5087
rtibia 28.788
rfoot -6.10432 32.9355
rtoes 47.4608
lfemur -9.16396 -0.970617 -20.3916
ltibia 23.5271
lfoot -19.3412 18.3952
ltoes -10.9682
429
root 16.6399 17.8391 -15.7723 -9.56035 -82.5035 15.3421
lowerback -1.09326 -5.47019 0.836216
upperback -10.013 -7.66286 0.860465
thorax -9.98809 -3.94764 1.05964
lowerneck 6.53412 16.7223 18.5614
upperneck -9.90834 22.4212 -30.3889
head 2.04883 11.6601 -11.5013
rclavicle -5.88403e-014 -2.38542e-014
rhumerus -21.7784 -57.8191 23.246
rradius 55.6778
rwrist -43.509
rhand -12.502 27.2187
rfingers 7.12502
rthumb 13.5733 -2.31881
lclavicle -5.88403e-014 -2.38542e-014
lhumerus -12.7858 24.9846 -4.5817
lradius 61.555
lwrist 97.178
lhand -9.67681 13.1598
lfingers 7.12502
lthumb 16.2949 42.4951
rfemur -16.3801 3.14127 20.6386
rtibia 28.8214
rfoot -6.02411 33.125
rtoes 47.7287
lfemur -8.74724 -1.13946 -20.3601
ltibia 23.517
lfoot -19.2982 18.9268
ltoes -12.1289
430
root 16.5946 17.8301 -15.7604 -9.01237 -82.6607 14.5706
lowerback -1.29291 -5.44625 0.665893
upperback -10.0617 -7.63664 0.960659
thorax -9.88635 -3.92045 1.23379
lowerneck 6.18981 16.4848 18.6867
upperneck -10.0429 22.0298 -30.2079
head 1.96345 11.4358 -11.502
rclavicle 4.45278e-014 8.74653e-015
rhumerus -21.6045 -58.157 23.4008
rradius 56.6843
rwrist -43.8436
rhand -12.0057 27.068
rfingers 7.12502
rthumb 14.0515 -2.43697
lclavicle 4.45278e-014 8.74653e-015
lhumerus -11.8904 25.4964 -5.34518
lradius 61.3426
lwrist 97.2389
lhand -9.9348 13.2503
lfingers 7.12502
lthumb 16.0464 42.6058
rfemur -15.9756 2.86106 20.7908
rtibia 28.8498
rfoot -6.12717 33.3881
rtoes 47.7846
lfemur -8.28968 -1.474 -20.3071
ltibia 23.5103
lfoot -19.1004 19.8373
ltoes -14.3106
431
root 16.551 17.8234 -15.7472 -8.80433 -82.7091 14.2518
lowerback -1.64536 -5.50608 0.49829
upperback -10.1068 -7.72371 1.07085
thorax -9.68914 -3.95209 1.40621
lowerneck 5.84915 16.3868 18.478
upperneck -10.4248 21.7365 -30.056
head 1.79726 11.2725 -11.4561
rclavicle 2.20651e-014 1.59028e-014
rhumerus -21.2249 -58.8017 23.2083
rradius 57.809
rwrist -44.0339
rhand -11.495 27.1985
rfingers 7.12502
rthumb 14.5436 -2.27172
lclavicle 2.20651e-014 1.59028e-014
lhumerus -11.3512 25.7176 -6.40743
lradius 60.9545
lwrist 97.2204
lhand -10.1226 13.0495
lfingers 7.12502
lthumb 15.8656 42.4195
rfemur -15.6785 2.39167 20.8436
rtibia 28.8325
rfoot -5.98321 33.8288
rtoes 48.055
lfemur -7.99173 -1.59849 -20.2985
ltibia 23.5509
lfoot -19.5851 19.8762
ltoes -13.0362
432
root 16.5085 17.8148 -15.7394 -7.75055 -82.7755 13.0844
lowerback -1.99004 -5.5512 0.532881
upperback -10.1562 -7.78743 1.13628
thorax -9.53641 -3.99106 1.42317
lowerneck 5.37349 16.2871 18.2585
upperneck -10.6812 21.448 -29.8529
head 1.68188 11.0961 -11.372
rclavicle -6.7388e-014 1.03368e-014
rhumerus -21.0412 -59.2584 23.1118
rradius 59.0026
rwrist -44.3794
rhand -11.3671 27.5216
rfingers 7.12502
rthumb 14.6668 -1.93968
lclavicle -6.7388e-014 1.03368e-014
lhumerus -10.8299 26.1849 -7.49199
lradius 60.5764
lwrist 97.0747
lhand -9.89951 12.7839
lfingers 7.12502
lthumb 16.0804 42.1366
rfemur -15.394 1.74914 21.0344
rtibia 28.7852
rfoot -5.47738 34.4558
rtoes 48.5932
lfemur -7.72868 -1.44509 -20.1251
ltibia 23.6072
lfoot -20.0424 19.6561
ltoes -12.7561
433
root 16.4669 17.8065 -15.7361 -6.22831 -82.8798 11.3891
lowerback -2.27714 -5.51697 0.585543
upperback -10.1926 -7.7458 1.15327
thorax -9.41357 -3.98042 1.37918
lowerneck 4.72093 16.0951 18.1825
upperneck -10.6542 21.088 -29.493
head 1.65248 10.8582 -11.2416
rclavicle -1.50281e-013 -3.18055e-014
rhumerus -21.3696 -59.234 23.6061
rradius 60.0127
rwrist -44.851
rhand -11.5178 28.0496
rfingers 7.12502
rthumb 14.5216 -1.4222
lclavicle -1.50281e-013 -3.18055e-014
lhumerus -10.0541 26.9983 -8.33329
lradius 60.218
lwrist 96.7401
lhand -9.55245 12.7819
lfingers 7.12502
lthumb 16.4146 42.1073
rfemur -15.0751 1.11041 21.3029
rtibia 28.7572
rfoot -4.79024 35.1273
rtoes 49.2695
lfemur -7.3684 -1.75687 -19.8902
ltibia 23.6404
lfoot -20.588 19.7963
ltoes -12.1164
434
root 16.427 17.7988 -15.7286 -6.3477 -82.9078 11.3324
lowerback -2.48989 -5.51598 0.371224
upperback -10.2585 -7.75249 1.23535
thorax -9.32115 -3.96773 1.55951
lowerneck 4.19243 15.9918 17.8159
upperneck -10.67 20.8276 -29.1712
head 1.58694 10.6869 -11.0797
rclavicle 8.15017e-015 2.38542e-015
rhumerus -21.4369 -59.2227 24.0913
rradius 60.7166
rwrist -45.1988
rhand -11.3656 29.2303
rfingers 7.12502
rthumb 14.6683 -0.230892
lclavicle 8.15017e-015 2.38542e-015
lhumerus -9.5243 27.7633 -9.09697
lradius 59.7814
lwrist 96.2823
lhand -9.31015 12.6538
lfingers 7.12502
lthumb 16.6479 41.9598
rfemur -14.7172 0.787665 21.3088
rtibia 28.7372
rfoot -4.61038 35.4438
rtoes 49.3147
lfemur -6.96815 -2.01576 -19.9058
ltibia 23.6629
lfoot -20.7918 19.9948
ltoes -12.2228
435
root 16.3893 17.7907 -15.7169 -6.94524 -82.8521 11.8302
lowerback -2.65211 -5.58409 0.119988
upperback -10.3909 -7.85335 1.37645
thorax -9.31839 -3.99557 1.83786
lowerneck 3.8868 15.9873 17.5966
upperneck -10.7856 20.722 -29.2663
head 1.57222 10.6148 -11.0713
rclavicle -3.16068e-014 -8.74653e-015
rhumerus -21.0679 -59.4662 24.2911
rradius 61.1406
rwrist -45.422
rhand -9.4145 24.779
rfingers 7.12502
rthumb 16.5474 -4.53546
lclavicle -3.16068e-014 -8.74653e-015
lhumerus -9.37216 28.3839 -9.96805
lradius 59.395
lwrist 95.7721
lhand -9.34011 12.4493
lfingers 7.12502
lthumb 16.619 41.7577
rfemur -14.434 0.473525 21.2189
rtibia 28.7153
rfoot -4.82875 35.6994
rtoes 48.8514
lfemur -6.6699 -1.87177 -19.9713
ltibia 23.6632
lfoot -20.4216 20.0005
ltoes -15.0603
436
root 16.3541 17.7832 -15.7047 -5.65795 -82.8217 10.5976
lowerback -2.96003 -5.58917 0.127651
upperback -10.5418 -7.86451 1.5404
thorax -9.28465 -4.00243 1.98154
lowerneck 3.92277 15.9184 17.9259
upperneck -11.1546 20.5571 -30.0005
head 1.57577 10.5475 -11.4028
rclavicle -2.04748e-014 2.78299e-014
rhumerus -21.0069 -59.828 24.8522
rradius 61.3786
rwrist -45.417
rhand -8.91126 22.9928
rfingers 7.12502
rthumb 17.0319 -6.28056
lclavicle -2.04748e-014 2.78299e-014
lhumerus -9.1974 29.0681 -10.7408
lradius 59.0129
lwrist 95.3017
lhand -9.42146 12.1606
lfingers 7.12502
lthumb 16.5407 41.4756
rfemur -14.3776 0.0503995 21.3538
rtibia 28.7165
rfoot -4.73551 36.0933
rtoes 48.9775
lfemur -6.57149 -2.1175 -19.7792
ltibia 23.6236
lfoot -20.3522 19.9667
ltoes -16.557
437
root 16.3222 17.7772 -15.6889 -3.95549 -82.8396 8.91715
lowerback -3.24594 -5.48157 0.242474
upperback -10.6375 -7.7192 1.67282
thorax -9.2242 -3.94095 2.02602
lowerneck 4.28823 15.7519 18.2359
upperneck -11.9327 20.1979 -30.9022
head 1.38827 10.4293 -11.8782
rclavicle 5.14852e-014 1.98785e-014
rhumerus -21.3998 -60.2327 25.9336
rradius 61.4887
rwrist -45.1638
rhand -9.49616 25.7648
rfingers 7.12502
rthumb 16.4688 -3.55621
lclavicle 5.14852e-014 1.98785e-014
lhumerus -8.93977 29.7143 -11.4073
lradius 58.6388
lwrist 95.0604
lhand -9.78912 11.8037
lfingers 7.12502
lthumb 16.1867 41.1479
rfemur -14.3046 -0.247765 21.5233
rtibia 28.7147
rfoot -3.95711 36.5358
rtoes 49.532
lfemur -6.42055 -2.58841 -19.5648
ltibia 23.589
lfoot -20.833 19.8398
ltoes -15.7746
438
root 16.2908 17.7699 -15.6715 -4.01675 -82.8359 8.82617
lowerback -3.34125 -5.35967 0.167137
upperback -10.6734 -7.55561 1.7323
thorax -9.19358 -3.85319 2.11312
lowerneck 4.17892 15.5933 17.952
upperneck -12.3812 19.8098 -31.0434
head 1.18049 10.2493 -11.9613
rclavicle 1.09332e-014 -1.74931e-014
rhumerus -21.9513 -60.4879 27.1743
rradius 61.4436
rwrist -45.1802
rhand -10.7488 30.3104
rfingers 7.12502
rthumb 15.2625 0.893491
lclavicle 1.09332e-014 -1.74931e-014
lhumerus -8.75379 30.167 -12.2012
lradius 58.3251
lwrist 95.0778
lhand -10.6811 11.7591
lfingers 7.12502
lthumb 15.3277 41.171
rfemur -14.022 -0.549102 21.4709
rtibia 28.6959
rfoot -3.32442 36.9325
rtoes 49.7692
lfemur -6.07102 -2.70094 -19.6104
ltibia 23.5805
lfoot -21.212 19.7173
ltoes -15.7223
439
root 16.2591 17.7627 -15.6588 -3.83352 -82.8116 8.45713
lowerback -3.37124 -5.30991 0.13548
upperback -10.7016 -7.48767 1.78286
thorax -9.19803 -3.81519 2.17897
lowerneck 3.63132 15.5896 17.9111
upperneck -12.2876 19.7381 -31.11
head 1.28936 10.1648 -11.9312
rclavicle -5.54609e-014 2.38542e-015
rhumerus -22.4918 -60.7017 28.2556
rradius 61.3134
rwrist -45.554
rhand -9.54764 27.9413
rfingers 7.12502
rthumb 16.4192 -1.38377
lclavicle -5.54609e-014 2.38542e-015
lhumerus -8.71496 30.6244 -13.1555
lradius 57.8668
lwrist 95.0025
lhand -11.2532 11.832
lfingers 7.12502
lthumb 14.7766 41.2853
rfemur -13.7188 -0.690073 21.4844
rtibia 28.7063
rfoot -3.42384 37.0171
rtoes 49.9633
lfemur -5.72254 -2.60513 -19.6064
ltibia 23.5523
lfoot -21.1236 19.9148
ltoes -17.7967
